<?xml version="1.0" encoding="utf-8"?>
<!-- Generator: Adobe Illustrator 17.0.0, SVG Export Plug-In . SVG Version: 6.00 Build 0)  -->
<!DOCTYPE svg PUBLIC "-//W3C//DTD SVG 1.1//EN" "http://www.w3.org/Graphics/SVG/1.1/DTD/svg11.dtd">
<svg version="1.1" id="Layer_1" xmlns="http://www.w3.org/2000/svg" xmlns:xlink="http://www.w3.org/1999/xlink" x="0px" y="0px"
	 width="1200px" height="1200px" viewBox="0 0 1200 1200" enable-background="new 0 0 1200 1200" xml:space="preserve">
<g>
	<g>
		<path fill="#4DB6AC" d="M293.758,527.184c-128.712,0-233.429-104.717-233.429-233.429S165.046,60.33,293.758,60.33
			s233.425,104.713,233.425,233.425S422.47,527.184,293.758,527.184z M293.758,145.99c-81.481,0-147.768,66.284-147.768,147.765
			s66.287,147.762,147.768,147.762c81.478,0,147.765-66.281,147.765-147.762S375.236,145.99,293.758,145.99z"/>
	</g>
	<g>
		<path fill="#03A9F4" d="M906.235,527.184c-128.712,0-233.425-104.717-233.425-233.429S777.523,60.33,906.235,60.33
			s233.435,104.713,233.435,233.425S1034.947,527.184,906.235,527.184z M906.235,145.99c-81.481,0-147.765,66.284-147.765,147.765
			s66.284,147.762,147.765,147.762s147.768-66.281,147.768-147.762S987.716,145.99,906.235,145.99z"/>
	</g>
	<g>
		<path fill="#4DB6AC" d="M293.758,1139.67c-128.712,0-233.429-104.723-233.429-233.435s104.717-233.429,233.429-233.429
			s233.425,104.717,233.425,233.429S422.47,1139.67,293.758,1139.67z M293.758,758.473c-81.481,0-147.768,66.281-147.768,147.762
			s66.287,147.768,147.768,147.768c81.478,0,147.765-66.287,147.765-147.768S375.236,758.473,293.758,758.473z"/>
	</g>
	<g>
		<path fill="#03A9F4" d="M906.235,1139.67c-128.712,0-233.425-104.723-233.425-233.435s104.714-233.429,233.425-233.429
			s233.435,104.717,233.435,233.429S1034.947,1139.67,906.235,1139.67z M906.235,758.473c-81.481,0-147.765,66.281-147.765,147.762
			s66.284,147.768,147.765,147.768s147.768-66.287,147.768-147.768S987.716,758.473,906.235,758.473z"/>
	</g>
	<g>
		<g>
			<defs>
				<line id="SVGID_1_" x1="293.757" y1="293.757" x2="771.471" y2="771.47"/>
			</defs>
			<clipPath id="SVGID_2_">
				<use xlink:href="#SVGID_1_"  overflow="visible"/>
			</clipPath>
			<path clip-path="url(#SVGID_2_)" fill="#FFFFFF" d="M296,293.757V771.47V293.757z"/>
			<rect x="296" y="294.257" clip-path="url(#SVGID_2_)" fill="#FFFFFF" width="0" height="480.063"/>
			<rect x="296" y="294.257" clip-path="url(#SVGID_2_)" fill="#FEFEFE" width="0" height="480.063"/>
			<rect x="296" y="294" clip-path="url(#SVGID_2_)" fill="#FDFDFD" width="6" height="481"/>
			<rect x="302" y="294.257" clip-path="url(#SVGID_2_)" fill="#FCFCFC" width="0" height="480.063"/>
			<rect x="302" y="294.257" clip-path="url(#SVGID_2_)" fill="#FBFBFB" width="0" height="480.063"/>
			<rect x="302" y="294" clip-path="url(#SVGID_2_)" fill="#FAFAFA" width="7" height="481"/>
			<rect x="309" y="294.257" clip-path="url(#SVGID_2_)" fill="#F9F9F9" width="0" height="480.063"/>
			<rect x="309" y="294.257" clip-path="url(#SVGID_2_)" fill="#F8F8F8" width="0" height="480.063"/>
			<rect x="309" y="294" clip-path="url(#SVGID_2_)" fill="#F7F7F7" width="7" height="481"/>
			<rect x="316" y="294.257" clip-path="url(#SVGID_2_)" fill="#F6F6F6" width="0" height="480.063"/>
			<rect x="316" y="294.257" clip-path="url(#SVGID_2_)" fill="#F5F5F5" width="0" height="480.063"/>
			<rect x="316" y="294.257" clip-path="url(#SVGID_2_)" fill="#F4F4F4" width="0" height="480.063"/>
			<rect x="316" y="294" clip-path="url(#SVGID_2_)" fill="#F3F3F3" width="7" height="481"/>
			<rect x="323" y="294.257" clip-path="url(#SVGID_2_)" fill="#F2F2F2" width="0" height="480.063"/>
			<rect x="323" y="294.257" clip-path="url(#SVGID_2_)" fill="#F1F1F1" width="0" height="480.063"/>
			<rect x="323" y="294" clip-path="url(#SVGID_2_)" fill="#F0F0F0" width="7" height="481"/>
			<rect x="330" y="294.257" clip-path="url(#SVGID_2_)" fill="#EFEFEF" width="0" height="480.063"/>
			<rect x="330" y="294.257" clip-path="url(#SVGID_2_)" fill="#EEEEEE" width="0" height="480.063"/>
			<rect x="330" y="294" clip-path="url(#SVGID_2_)" fill="#EDEDED" width="6" height="481"/>
			<rect x="336" y="294.257" clip-path="url(#SVGID_2_)" fill="#ECECEC" width="0" height="480.063"/>
			<rect x="336" y="294.257" clip-path="url(#SVGID_2_)" fill="#EBEBEB" width="0" height="480.063"/>
			<rect x="336" y="294" clip-path="url(#SVGID_2_)" fill="#EAEAEA" width="7" height="481"/>
			<rect x="343" y="294.257" clip-path="url(#SVGID_2_)" fill="#E9E9E9" width="0" height="480.063"/>
			<rect x="343" y="294.257" clip-path="url(#SVGID_2_)" fill="#E8E8E8" width="0" height="480.063"/>
			<rect x="343" y="294" clip-path="url(#SVGID_2_)" fill="#E7E7E7" width="7" height="481"/>
			<rect x="350" y="294.257" clip-path="url(#SVGID_2_)" fill="#E6E6E6" width="0" height="480.063"/>
			<rect x="350" y="294.257" clip-path="url(#SVGID_2_)" fill="#E5E4E4" width="0" height="480.063"/>
			<rect x="350" y="294" clip-path="url(#SVGID_2_)" fill="#E4E3E3" width="7" height="481"/>
			<rect x="357" y="294.257" clip-path="url(#SVGID_2_)" fill="#E3E2E2" width="0" height="480.063"/>
			<rect x="357" y="294.257" clip-path="url(#SVGID_2_)" fill="#E2E1E1" width="0" height="480.063"/>
			<rect x="357" y="294.257" clip-path="url(#SVGID_2_)" fill="#E1E0E0" width="0" height="480.063"/>
			<rect x="357" y="294" clip-path="url(#SVGID_2_)" fill="#E0DFDF" width="6" height="481"/>
			<rect x="363" y="294.257" clip-path="url(#SVGID_2_)" fill="#DFDEDE" width="0" height="480.063"/>
			<rect x="363" y="294.257" clip-path="url(#SVGID_2_)" fill="#DEDDDD" width="0" height="480.063"/>
			<rect x="363" y="294" clip-path="url(#SVGID_2_)" fill="#DDDCDC" width="7" height="481"/>
			<rect x="370" y="294.257" clip-path="url(#SVGID_2_)" fill="#DCDBDB" width="0" height="480.063"/>
			<rect x="370" y="294.257" clip-path="url(#SVGID_2_)" fill="#DBDADA" width="0" height="480.063"/>
			<rect x="370" y="294" clip-path="url(#SVGID_2_)" fill="#DAD9D9" width="7" height="481"/>
			<rect x="377" y="294.257" clip-path="url(#SVGID_2_)" fill="#D9D8D8" width="0" height="480.063"/>
			<rect x="377" y="294.257" clip-path="url(#SVGID_2_)" fill="#D8D7D7" width="0" height="480.063"/>
			<rect x="377" y="294" clip-path="url(#SVGID_2_)" fill="#D7D6D6" width="7" height="481"/>
			<rect x="384" y="294.257" clip-path="url(#SVGID_2_)" fill="#D6D5D5" width="0" height="480.063"/>
			<rect x="384" y="294.257" clip-path="url(#SVGID_2_)" fill="#D5D4D4" width="0" height="480.063"/>
			<rect x="384" y="294" clip-path="url(#SVGID_2_)" fill="#D4D3D3" width="6" height="481"/>
			<rect x="390" y="294.257" clip-path="url(#SVGID_2_)" fill="#D3D2D2" width="0" height="480.063"/>
			<rect x="390" y="294.257" clip-path="url(#SVGID_2_)" fill="#D2D1D1" width="0" height="480.063"/>
			<rect x="390" y="294.257" clip-path="url(#SVGID_2_)" fill="#D1D0D0" width="0" height="480.063"/>
			<rect x="390" y="294" clip-path="url(#SVGID_2_)" fill="#D0CFCF" width="7" height="481"/>
			<rect x="397" y="294.257" clip-path="url(#SVGID_2_)" fill="#CFCECE" width="0" height="480.063"/>
			<rect x="397" y="294.257" clip-path="url(#SVGID_2_)" fill="#CECDCD" width="0" height="480.063"/>
			<rect x="397" y="294" clip-path="url(#SVGID_2_)" fill="#CDCCCC" width="7" height="481"/>
			<rect x="404" y="294.257" clip-path="url(#SVGID_2_)" fill="#CCCBCB" width="0" height="480.063"/>
			<rect x="404" y="294.257" clip-path="url(#SVGID_2_)" fill="#CCCBCB" width="0" height="480.063"/>
			<rect x="404" y="294" clip-path="url(#SVGID_2_)" fill="#CBCACA" width="7" height="481"/>
			<rect x="411" y="294.257" clip-path="url(#SVGID_2_)" fill="#CAC9C9" width="0" height="480.063"/>
			<rect x="411" y="294.257" clip-path="url(#SVGID_2_)" fill="#C9C8C8" width="0" height="480.063"/>
			<rect x="411" y="294" clip-path="url(#SVGID_2_)" fill="#C8C7C7" width="6" height="481"/>
			<rect x="417" y="294.257" clip-path="url(#SVGID_2_)" fill="#C7C6C6" width="0" height="480.063"/>
			<rect x="417" y="294.257" clip-path="url(#SVGID_2_)" fill="#C6C5C5" width="0" height="480.063"/>
			<rect x="417" y="294" clip-path="url(#SVGID_2_)" fill="#C5C4C4" width="7" height="481"/>
			<rect x="424" y="294.257" clip-path="url(#SVGID_2_)" fill="#C4C3C3" width="0" height="480.063"/>
			<rect x="424" y="294.257" clip-path="url(#SVGID_2_)" fill="#C3C2C2" width="0" height="480.063"/>
			<rect x="424" y="294" clip-path="url(#SVGID_2_)" fill="#C2C1C1" width="7" height="481"/>
			<rect x="431" y="294.257" clip-path="url(#SVGID_2_)" fill="#C1C0C0" width="0" height="480.063"/>
			<rect x="431" y="294.257" clip-path="url(#SVGID_2_)" fill="#C0BFBF" width="0" height="480.063"/>
			<rect x="431" y="294.257" clip-path="url(#SVGID_2_)" fill="#BFBEBE" width="0" height="480.063"/>
			<rect x="431" y="294" clip-path="url(#SVGID_2_)" fill="#BEBDBD" width="7" height="481"/>
			<rect x="438" y="294.257" clip-path="url(#SVGID_2_)" fill="#BDBCBC" width="0" height="480.063"/>
			<rect x="438" y="294.257" clip-path="url(#SVGID_2_)" fill="#BCBBBB" width="0" height="480.063"/>
			<rect x="438" y="294" clip-path="url(#SVGID_2_)" fill="#BBBABA" width="6" height="481"/>
			<rect x="444" y="294.257" clip-path="url(#SVGID_2_)" fill="#BAB9B9" width="0" height="480.063"/>
			<rect x="444" y="294.257" clip-path="url(#SVGID_2_)" fill="#B9B8B8" width="0" height="480.063"/>
			<rect x="444" y="294" clip-path="url(#SVGID_2_)" fill="#B8B7B7" width="7" height="481"/>
			<rect x="451" y="294.257" clip-path="url(#SVGID_2_)" fill="#B7B6B6" width="0" height="480.063"/>
			<rect x="451" y="294.257" clip-path="url(#SVGID_2_)" fill="#B6B5B5" width="0" height="480.063"/>
			<rect x="451" y="294" clip-path="url(#SVGID_2_)" fill="#B5B4B4" width="7" height="481"/>
			<rect x="458" y="294.257" clip-path="url(#SVGID_2_)" fill="#B4B3B3" width="0" height="480.063"/>
			<rect x="458" y="294.257" clip-path="url(#SVGID_2_)" fill="#B3B2B2" width="0" height="480.063"/>
			<rect x="458" y="294" clip-path="url(#SVGID_2_)" fill="#B2B1B1" width="7" height="481"/>
			<rect x="465" y="294.257" clip-path="url(#SVGID_2_)" fill="#B1B0B0" width="0" height="480.063"/>
			<rect x="465" y="294.257" clip-path="url(#SVGID_2_)" fill="#B0AFAF" width="0" height="480.063"/>
			<rect x="465" y="294" clip-path="url(#SVGID_2_)" fill="#AFAEAE" width="7" height="481"/>
			<rect x="472" y="294.257" clip-path="url(#SVGID_2_)" fill="#AEADAD" width="0" height="480.063"/>
			<rect x="472" y="294.257" clip-path="url(#SVGID_2_)" fill="#ADACAC" width="0" height="480.063"/>
			<rect x="472" y="294.257" clip-path="url(#SVGID_2_)" fill="#ACABAB" width="0" height="480.063"/>
			<rect x="472" y="294" clip-path="url(#SVGID_2_)" fill="#ABAAAA" width="6" height="481"/>
			<rect x="478" y="294.257" clip-path="url(#SVGID_2_)" fill="#AAA9A9" width="0" height="480.063"/>
			<rect x="478" y="294.257" clip-path="url(#SVGID_2_)" fill="#A9A8A8" width="0" height="480.063"/>
			<rect x="478" y="294" clip-path="url(#SVGID_2_)" fill="#A8A7A7" width="7" height="481"/>
			<rect x="485" y="294.257" clip-path="url(#SVGID_2_)" fill="#A7A6A6" width="0" height="480.063"/>
			<rect x="485" y="294.257" clip-path="url(#SVGID_2_)" fill="#A6A5A5" width="0" height="480.063"/>
			<rect x="485" y="294" clip-path="url(#SVGID_2_)" fill="#A5A4A4" width="7" height="481"/>
			<rect x="492" y="294.257" clip-path="url(#SVGID_2_)" fill="#A4A3A3" width="0" height="480.063"/>
			<rect x="492" y="294.257" clip-path="url(#SVGID_2_)" fill="#A3A2A2" width="0" height="480.063"/>
			<rect x="492" y="294" clip-path="url(#SVGID_2_)" fill="#A2A1A1" width="7" height="481"/>
			<rect x="499" y="294.257" clip-path="url(#SVGID_2_)" fill="#A2A0A0" width="0" height="480.063"/>
			<rect x="499" y="294.257" clip-path="url(#SVGID_2_)" fill="#A19F9F" width="0" height="480.063"/>
			<rect x="499" y="294" clip-path="url(#SVGID_2_)" fill="#A09E9E" width="6" height="481"/>
			<rect x="505" y="294.257" clip-path="url(#SVGID_2_)" fill="#9F9D9D" width="0" height="480.063"/>
			<rect x="505" y="294.257" clip-path="url(#SVGID_2_)" fill="#9E9C9C" width="0" height="480.063"/>
			<rect x="505" y="294" clip-path="url(#SVGID_2_)" fill="#9D9B9B" width="7" height="481"/>
			<rect x="512" y="294.257" clip-path="url(#SVGID_2_)" fill="#9C9A9A" width="0" height="480.063"/>
			<rect x="512" y="294.257" clip-path="url(#SVGID_2_)" fill="#9B9999" width="0" height="480.063"/>
			<rect x="512" y="294.257" clip-path="url(#SVGID_2_)" fill="#9A9898" width="0" height="480.063"/>
			<rect x="512" y="294" clip-path="url(#SVGID_2_)" fill="#999797" width="7" height="481"/>
			<rect x="519" y="294.257" clip-path="url(#SVGID_2_)" fill="#989696" width="0" height="480.063"/>
			<rect x="519" y="294.257" clip-path="url(#SVGID_2_)" fill="#979595" width="0" height="480.063"/>
			<rect x="519" y="294" clip-path="url(#SVGID_2_)" fill="#969494" width="7" height="481"/>
			<rect x="526" y="294.257" clip-path="url(#SVGID_2_)" fill="#959393" width="0" height="480.063"/>
			<rect x="526" y="294.257" clip-path="url(#SVGID_2_)" fill="#949292" width="0" height="480.063"/>
			<rect x="526" y="294" clip-path="url(#SVGID_2_)" fill="#939191" width="6" height="481"/>
			<rect x="532" y="294.257" clip-path="url(#SVGID_2_)" fill="#929090" width="0" height="480.063"/>
			<rect x="532" y="294.257" clip-path="url(#SVGID_2_)" fill="#918F8F" width="0" height="480.063"/>
			<rect x="532" y="294" clip-path="url(#SVGID_2_)" fill="#908E8E" width="7" height="481"/>
			<rect x="539" y="294.257" clip-path="url(#SVGID_2_)" fill="#8F8D8D" width="0" height="480.063"/>
			<rect x="539" y="294.257" clip-path="url(#SVGID_2_)" fill="#8E8C8C" width="0" height="480.063"/>
			<rect x="539" y="294" clip-path="url(#SVGID_2_)" fill="#8D8B8B" width="7" height="481"/>
			<rect x="546" y="294.257" clip-path="url(#SVGID_2_)" fill="#8C8A8A" width="0" height="480.063"/>
			<rect x="546" y="294.257" clip-path="url(#SVGID_2_)" fill="#8B8989" width="0" height="480.063"/>
			<rect x="546" y="294" clip-path="url(#SVGID_2_)" fill="#8A8888" width="7" height="481"/>
			<rect x="553" y="294.257" clip-path="url(#SVGID_2_)" fill="#898787" width="0" height="480.063"/>
			<rect x="553" y="294.257" clip-path="url(#SVGID_2_)" fill="#888686" width="0" height="480.063"/>
			<rect x="553" y="294.257" clip-path="url(#SVGID_2_)" fill="#878585" width="0" height="480.063"/>
			<rect x="553" y="294" clip-path="url(#SVGID_2_)" fill="#868484" width="6" height="481"/>
			<rect x="559" y="294.257" clip-path="url(#SVGID_2_)" fill="#858383" width="0" height="480.063"/>
			<rect x="559" y="294.257" clip-path="url(#SVGID_2_)" fill="#848282" width="0" height="480.063"/>
			<rect x="559" y="294" clip-path="url(#SVGID_2_)" fill="#838181" width="7" height="481"/>
			<rect x="566" y="294.257" clip-path="url(#SVGID_2_)" fill="#828080" width="0" height="480.063"/>
			<rect x="566" y="294.257" clip-path="url(#SVGID_2_)" fill="#817F7F" width="0" height="480.063"/>
			<rect x="566" y="294" clip-path="url(#SVGID_2_)" fill="#807E7E" width="7" height="481"/>
			<rect x="573" y="294.257" clip-path="url(#SVGID_2_)" fill="#7F7D7D" width="0" height="480.063"/>
			<rect x="573" y="294.257" clip-path="url(#SVGID_2_)" fill="#7E7C7C" width="0" height="480.063"/>
			<rect x="573" y="294" clip-path="url(#SVGID_2_)" fill="#7D7B7B" width="7" height="481"/>
			<rect x="580" y="294.257" clip-path="url(#SVGID_2_)" fill="#7C7A7A" width="0" height="480.063"/>
			<rect x="580" y="294.257" clip-path="url(#SVGID_2_)" fill="#7B7979" width="0" height="480.063"/>
			<rect x="580" y="294" clip-path="url(#SVGID_2_)" fill="#7A7878" width="6" height="481"/>
			<rect x="586" y="294.257" clip-path="url(#SVGID_2_)" fill="#797777" width="0" height="480.063"/>
			<rect x="586" y="294.257" clip-path="url(#SVGID_2_)" fill="#787676" width="0" height="480.063"/>
			<rect x="586" y="294" clip-path="url(#SVGID_2_)" fill="#777475" width="7" height="481"/>
			<rect x="593" y="294.257" clip-path="url(#SVGID_2_)" fill="#767374" width="0" height="480.063"/>
			<rect x="593" y="294.257" clip-path="url(#SVGID_2_)" fill="#757273" width="0" height="480.063"/>
			<rect x="593" y="294.257" clip-path="url(#SVGID_2_)" fill="#747172" width="0" height="480.063"/>
			<rect x="593" y="294" clip-path="url(#SVGID_2_)" fill="#737071" width="7" height="481"/>
			<rect x="600" y="294.257" clip-path="url(#SVGID_2_)" fill="#726F70" width="0" height="480.063"/>
			<rect x="600" y="294.257" clip-path="url(#SVGID_2_)" fill="#716E6F" width="0" height="480.063"/>
			<rect x="600" y="294" clip-path="url(#SVGID_2_)" fill="#706D6E" width="7" height="481"/>
			<rect x="607" y="294.257" clip-path="url(#SVGID_2_)" fill="#6F6C6D" width="0" height="480.063"/>
			<rect x="607" y="294.257" clip-path="url(#SVGID_2_)" fill="#6E6B6C" width="0" height="480.063"/>
			<rect x="607" y="294" clip-path="url(#SVGID_2_)" fill="#6D6A6B" width="7" height="481"/>
			<rect x="614" y="294.257" clip-path="url(#SVGID_2_)" fill="#6C696A" width="0" height="480.063"/>
			<rect x="614" y="294.257" clip-path="url(#SVGID_2_)" fill="#6B6869" width="0" height="480.063"/>
			<rect x="614" y="294" clip-path="url(#SVGID_2_)" fill="#6A6768" width="6" height="481"/>
			<rect x="620" y="294.257" clip-path="url(#SVGID_2_)" fill="#696667" width="0" height="480.063"/>
			<rect x="620" y="294.257" clip-path="url(#SVGID_2_)" fill="#686566" width="0" height="480.063"/>
			<rect x="620" y="294" clip-path="url(#SVGID_2_)" fill="#676465" width="7" height="481"/>
			<rect x="627" y="294.257" clip-path="url(#SVGID_2_)" fill="#666364" width="0" height="480.063"/>
			<rect x="627" y="294.257" clip-path="url(#SVGID_2_)" fill="#656263" width="0" height="480.063"/>
			<rect x="627" y="294" clip-path="url(#SVGID_2_)" fill="#646162" width="7" height="481"/>
			<rect x="634" y="294.257" clip-path="url(#SVGID_2_)" fill="#636061" width="0" height="480.063"/>
			<rect x="634" y="294.257" clip-path="url(#SVGID_2_)" fill="#625F60" width="0" height="480.063"/>
			<rect x="634" y="294.257" clip-path="url(#SVGID_2_)" fill="#615E5F" width="0" height="480.063"/>
			<rect x="634" y="294" clip-path="url(#SVGID_2_)" fill="#605D5E" width="7" height="481"/>
			<rect x="641" y="294.257" clip-path="url(#SVGID_2_)" fill="#5F5C5D" width="0" height="480.063"/>
			<rect x="641" y="294.257" clip-path="url(#SVGID_2_)" fill="#5E5B5C" width="0" height="480.063"/>
			<rect x="641" y="294" clip-path="url(#SVGID_2_)" fill="#5D5A5B" width="6" height="481"/>
			<rect x="647" y="294.257" clip-path="url(#SVGID_2_)" fill="#5C595A" width="0" height="480.063"/>
			<rect x="647" y="294.257" clip-path="url(#SVGID_2_)" fill="#5B5859" width="0" height="480.063"/>
			<rect x="647" y="294" clip-path="url(#SVGID_2_)" fill="#5A5758" width="7" height="481"/>
			<rect x="654" y="294.257" clip-path="url(#SVGID_2_)" fill="#595657" width="0" height="480.063"/>
			<rect x="654" y="294.257" clip-path="url(#SVGID_2_)" fill="#585556" width="0" height="480.063"/>
			<rect x="654" y="294" clip-path="url(#SVGID_2_)" fill="#575455" width="7" height="481"/>
			<rect x="661" y="294.257" clip-path="url(#SVGID_2_)" fill="#565354" width="0" height="480.063"/>
			<rect x="661" y="294.257" clip-path="url(#SVGID_2_)" fill="#555253" width="0" height="480.063"/>
			<rect x="661" y="294" clip-path="url(#SVGID_2_)" fill="#545152" width="7" height="481"/>
			<rect x="668" y="294.257" clip-path="url(#SVGID_2_)" fill="#535051" width="0" height="480.063"/>
			<rect x="668" y="294.257" clip-path="url(#SVGID_2_)" fill="#524F50" width="0" height="480.063"/>
			<rect x="668" y="294" clip-path="url(#SVGID_2_)" fill="#514E4F" width="6" height="481"/>
			<rect x="674" y="294.257" clip-path="url(#SVGID_2_)" fill="#504D4E" width="0" height="480.063"/>
			<rect x="674" y="294.257" clip-path="url(#SVGID_2_)" fill="#4F4C4D" width="0" height="480.063"/>
			<rect x="674" y="294.257" clip-path="url(#SVGID_2_)" fill="#4E4B4C" width="0" height="480.063"/>
			<rect x="674" y="294" clip-path="url(#SVGID_2_)" fill="#4D4A4B" width="7" height="481"/>
			<rect x="681" y="294.257" clip-path="url(#SVGID_2_)" fill="#4D494A" width="0" height="480.063"/>
			<rect x="681" y="294.257" clip-path="url(#SVGID_2_)" fill="#4C4849" width="0" height="480.063"/>
			<rect x="681" y="294" clip-path="url(#SVGID_2_)" fill="#4B4748" width="7" height="481"/>
			<rect x="688" y="294.257" clip-path="url(#SVGID_2_)" fill="#4A4647" width="0" height="480.063"/>
			<rect x="688" y="294.257" clip-path="url(#SVGID_2_)" fill="#494546" width="0" height="480.063"/>
			<rect x="688" y="294" clip-path="url(#SVGID_2_)" fill="#484445" width="7" height="481"/>
			<rect x="695" y="294.257" clip-path="url(#SVGID_2_)" fill="#474344" width="0" height="480.063"/>
			<rect x="695" y="294.257" clip-path="url(#SVGID_2_)" fill="#464243" width="0" height="480.063"/>
			<rect x="695" y="294" clip-path="url(#SVGID_2_)" fill="#454142" width="6" height="481"/>
			<rect x="701" y="294.257" clip-path="url(#SVGID_2_)" fill="#444041" width="0" height="480.063"/>
			<rect x="701" y="294.257" clip-path="url(#SVGID_2_)" fill="#433F40" width="0" height="480.063"/>
			<rect x="701" y="294" clip-path="url(#SVGID_2_)" fill="#423E3F" width="7" height="481"/>
			<rect x="708" y="294.257" clip-path="url(#SVGID_2_)" fill="#413D3E" width="0" height="480.063"/>
			<rect x="708" y="294.257" clip-path="url(#SVGID_2_)" fill="#403C3D" width="0" height="480.063"/>
			<rect x="708" y="294" clip-path="url(#SVGID_2_)" fill="#3F3B3C" width="7" height="481"/>
			<rect x="715" y="294.257" clip-path="url(#SVGID_2_)" fill="#3E3A3B" width="0" height="480.063"/>
			<rect x="715" y="294.257" clip-path="url(#SVGID_2_)" fill="#3D393A" width="0" height="480.063"/>
			<rect x="715" y="294.257" clip-path="url(#SVGID_2_)" fill="#3C3839" width="0" height="480.063"/>
			<rect x="715" y="294" clip-path="url(#SVGID_2_)" fill="#3B3738" width="7" height="481"/>
			<rect x="722" y="294.257" clip-path="url(#SVGID_2_)" fill="#3A3637" width="0" height="480.063"/>
			<rect x="722" y="294.257" clip-path="url(#SVGID_2_)" fill="#393536" width="0" height="480.063"/>
			<rect x="722" y="294" clip-path="url(#SVGID_2_)" fill="#383435" width="6" height="481"/>
			<rect x="728" y="294.257" clip-path="url(#SVGID_2_)" fill="#373334" width="0" height="480.063"/>
			<rect x="728" y="294.257" clip-path="url(#SVGID_2_)" fill="#363233" width="0" height="480.063"/>
			<rect x="728" y="294" clip-path="url(#SVGID_2_)" fill="#353132" width="7" height="481"/>
			<rect x="735" y="294.257" clip-path="url(#SVGID_2_)" fill="#343031" width="0" height="480.063"/>
			<rect x="735" y="294.257" clip-path="url(#SVGID_2_)" fill="#332F30" width="0" height="480.063"/>
			<rect x="735" y="294" clip-path="url(#SVGID_2_)" fill="#322E2F" width="7" height="481"/>
			<rect x="742" y="294.257" clip-path="url(#SVGID_2_)" fill="#312D2E" width="0" height="480.063"/>
			<rect x="742" y="294.257" clip-path="url(#SVGID_2_)" fill="#302C2D" width="0" height="480.063"/>
			<rect x="742" y="294" clip-path="url(#SVGID_2_)" fill="#2F2B2C" width="7" height="481"/>
			<rect x="749" y="294.257" clip-path="url(#SVGID_2_)" fill="#2E2A2B" width="0" height="480.063"/>
			<rect x="749" y="294.257" clip-path="url(#SVGID_2_)" fill="#2D292A" width="0" height="480.063"/>
			<rect x="749" y="294" clip-path="url(#SVGID_2_)" fill="#2C2829" width="7" height="481"/>
			<rect x="756" y="294.257" clip-path="url(#SVGID_2_)" fill="#2B2728" width="0" height="480.063"/>
			<rect x="756" y="294.257" clip-path="url(#SVGID_2_)" fill="#2A2627" width="0" height="480.063"/>
			<rect x="756" y="294.257" clip-path="url(#SVGID_2_)" fill="#292526" width="0" height="480.063"/>
			<rect x="756" y="294" clip-path="url(#SVGID_2_)" fill="#282425" width="6" height="481"/>
			<rect x="762" y="294.257" clip-path="url(#SVGID_2_)" fill="#272324" width="0" height="480.063"/>
			<rect x="762" y="294.257" clip-path="url(#SVGID_2_)" fill="#262223" width="0" height="480.063"/>
			<rect x="762" y="294" clip-path="url(#SVGID_2_)" fill="#252122" width="7" height="481"/>
			<rect x="769" y="294.257" clip-path="url(#SVGID_2_)" fill="#242021" width="0" height="480.063"/>
			<rect x="769" y="294.257" clip-path="url(#SVGID_2_)" fill="#231F20" width="0" height="480.063"/>
			<path clip-path="url(#SVGID_2_)" fill="#231F20" d="M769,771.47V293.757V771.47z"/>
		</g>
		<linearGradient id="SVGID_3_" gradientUnits="userSpaceOnUse" x1="250.9274" y1="532.6149" x2="814.2999" y2="532.6149">
			<stop  offset="0" style="stop-color:#4DB6AC"/>
			<stop  offset="1" style="stop-color:#03A9F4"/>
		</linearGradient>
		<path fill="url(#SVGID_3_)" d="M771.471,814.302c-10.961,0-21.922-4.186-30.285-12.546L263.474,324.043
			c-16.729-16.725-16.729-43.85,0-60.576c16.725-16.719,43.844-16.719,60.569,0L801.756,741.18c16.725,16.725,16.725,43.85,0,60.576
			C793.396,810.115,782.432,814.302,771.471,814.302z"/>
	</g>
</g>
</svg>
