<?xml version="1.0" encoding="utf-8"?>
<!-- Generator: Adobe Illustrator 17.0.0, SVG Export Plug-In . SVG Version: 6.00 Build 0)  -->
<!DOCTYPE svg PUBLIC "-//W3C//DTD SVG 1.1//EN" "http://www.w3.org/Graphics/SVG/1.1/DTD/svg11.dtd">
<svg version="1.1" id="Layer_1" xmlns="http://www.w3.org/2000/svg" xmlns:xlink="http://www.w3.org/1999/xlink" x="0px" y="0px"
	 width="1200px" height="1200px" viewBox="0 0 1200 1200" enable-background="new 0 0 1200 1200" xml:space="preserve">
<g>
	<g>
		<path fill="#FFFFFF" d="M293.758,527.184c-128.712,0-233.429-104.717-233.429-233.429S165.046,60.33,293.758,60.33
			s233.425,104.713,233.425,233.425S422.47,527.184,293.758,527.184z M293.758,145.99c-81.481,0-147.768,66.284-147.768,147.765
			s66.287,147.762,147.768,147.762c81.478,0,147.765-66.281,147.765-147.762S375.236,145.99,293.758,145.99z"/>
	</g>
	<g>
		<path fill="#FFFFFF" d="M906.235,527.184c-128.712,0-233.425-104.717-233.425-233.429S777.523,60.33,906.235,60.33
			s233.435,104.713,233.435,233.425S1034.947,527.184,906.235,527.184z M906.235,145.99c-81.481,0-147.765,66.284-147.765,147.765
			s66.284,147.762,147.765,147.762s147.768-66.281,147.768-147.762S987.716,145.99,906.235,145.99z"/>
	</g>
	<g>
		<path fill="#FFFFFF" d="M293.758,1139.67c-128.712,0-233.429-104.723-233.429-233.435s104.717-233.429,233.429-233.429
			s233.425,104.717,233.425,233.429S422.47,1139.67,293.758,1139.67z M293.758,758.473c-81.481,0-147.768,66.281-147.768,147.762
			s66.287,147.768,147.768,147.768c81.478,0,147.765-66.287,147.765-147.768S375.236,758.473,293.758,758.473z"/>
	</g>
	<g>
		<path fill="#FFFFFF" d="M906.235,1139.67c-128.712,0-233.425-104.723-233.425-233.435s104.714-233.429,233.425-233.429
			s233.435,104.717,233.435,233.429S1034.947,1139.67,906.235,1139.67z M906.235,758.473c-81.481,0-147.765,66.281-147.765,147.762
			s66.284,147.768,147.765,147.768s147.768-66.287,147.768-147.768S987.716,758.473,906.235,758.473z"/>
	</g>
	<g>
		<g>
			<defs>
				<line id="SVGID_1_" x1="293.757" y1="293.757" x2="771.471" y2="771.47"/>
			</defs>
			<use xlink:href="#SVGID_1_"  overflow="visible" fill="#FFFFFF"/>
			<clipPath id="SVGID_2_">
				<use xlink:href="#SVGID_1_"  overflow="visible"/>
			</clipPath>
			<path clip-path="url(#SVGID_2_)" fill="#FFFFFF" d="M296,293.757V771.47V293.757z"/>
			<rect x="296" y="294.257" clip-path="url(#SVGID_2_)" fill="#FFFFFF" width="0" height="480.063"/>
			<rect x="296" y="294.257" clip-path="url(#SVGID_2_)" fill="#FFFFFF" width="0" height="480.063"/>
			<rect x="296" y="294" clip-path="url(#SVGID_2_)" fill="#FFFFFF" width="6" height="481"/>
			<rect x="302" y="294.257" clip-path="url(#SVGID_2_)" fill="#FFFFFF" width="0" height="480.063"/>
			<rect x="302" y="294.257" clip-path="url(#SVGID_2_)" fill="#FFFFFF" width="0" height="480.063"/>
			<rect x="302" y="294" clip-path="url(#SVGID_2_)" fill="#FFFFFF" width="7" height="481"/>
			<rect x="309" y="294.257" clip-path="url(#SVGID_2_)" fill="#FFFFFF" width="0" height="480.063"/>
			<rect x="309" y="294.257" clip-path="url(#SVGID_2_)" fill="#FFFFFF" width="0" height="480.063"/>
			<rect x="309" y="294" clip-path="url(#SVGID_2_)" fill="#FFFFFF" width="7" height="481"/>
			<rect x="316" y="294.257" clip-path="url(#SVGID_2_)" fill="#FFFFFF" width="0" height="480.063"/>
			<rect x="316" y="294.257" clip-path="url(#SVGID_2_)" fill="#FFFFFF" width="0" height="480.063"/>
			<rect x="316" y="294.257" clip-path="url(#SVGID_2_)" fill="#FFFFFF" width="0" height="480.063"/>
			<rect x="316" y="294" clip-path="url(#SVGID_2_)" fill="#FFFFFF" width="7" height="481"/>
			<rect x="323" y="294.257" clip-path="url(#SVGID_2_)" fill="#FFFFFF" width="0" height="480.063"/>
			<rect x="323" y="294.257" clip-path="url(#SVGID_2_)" fill="#FFFFFF" width="0" height="480.063"/>
			<rect x="323" y="294" clip-path="url(#SVGID_2_)" fill="#FFFFFF" width="7" height="481"/>
			<rect x="330" y="294.257" clip-path="url(#SVGID_2_)" fill="#FFFFFF" width="0" height="480.063"/>
			<rect x="330" y="294.257" clip-path="url(#SVGID_2_)" fill="#FFFFFF" width="0" height="480.063"/>
			<rect x="330" y="294" clip-path="url(#SVGID_2_)" fill="#FFFFFF" width="6" height="481"/>
			<rect x="336" y="294.257" clip-path="url(#SVGID_2_)" fill="#FFFFFF" width="0" height="480.063"/>
			<rect x="336" y="294.257" clip-path="url(#SVGID_2_)" fill="#FFFFFF" width="0" height="480.063"/>
			<rect x="336" y="294" clip-path="url(#SVGID_2_)" fill="#FFFFFF" width="7" height="481"/>
			<rect x="343" y="294.257" clip-path="url(#SVGID_2_)" fill="#FFFFFF" width="0" height="480.063"/>
			<rect x="343" y="294.257" clip-path="url(#SVGID_2_)" fill="#FFFFFF" width="0" height="480.063"/>
			<rect x="343" y="294" clip-path="url(#SVGID_2_)" fill="#FFFFFF" width="7" height="481"/>
			<rect x="350" y="294.257" clip-path="url(#SVGID_2_)" fill="#FFFFFF" width="0" height="480.063"/>
			<rect x="350" y="294.257" clip-path="url(#SVGID_2_)" fill="#FFFFFF" width="0" height="480.063"/>
			<rect x="350" y="294" clip-path="url(#SVGID_2_)" fill="#FFFFFF" width="7" height="481"/>
			<rect x="357" y="294.257" clip-path="url(#SVGID_2_)" fill="#FFFFFF" width="0" height="480.063"/>
			<rect x="357" y="294.257" clip-path="url(#SVGID_2_)" fill="#FFFFFF" width="0" height="480.063"/>
			<rect x="357" y="294.257" clip-path="url(#SVGID_2_)" fill="#FFFFFF" width="0" height="480.063"/>
			<rect x="357" y="294" clip-path="url(#SVGID_2_)" fill="#FFFFFF" width="6" height="481"/>
			<rect x="363" y="294.257" clip-path="url(#SVGID_2_)" fill="#FFFFFF" width="0" height="480.063"/>
			<rect x="363" y="294.257" clip-path="url(#SVGID_2_)" fill="#FFFFFF" width="0" height="480.063"/>
			<rect x="363" y="294" clip-path="url(#SVGID_2_)" fill="#FFFFFF" width="7" height="481"/>
			<rect x="370" y="294.257" clip-path="url(#SVGID_2_)" fill="#FFFFFF" width="0" height="480.063"/>
			<rect x="370" y="294.257" clip-path="url(#SVGID_2_)" fill="#FFFFFF" width="0" height="480.063"/>
			<rect x="370" y="294" clip-path="url(#SVGID_2_)" fill="#FFFFFF" width="7" height="481"/>
			<rect x="377" y="294.257" clip-path="url(#SVGID_2_)" fill="#FFFFFF" width="0" height="480.063"/>
			<rect x="377" y="294.257" clip-path="url(#SVGID_2_)" fill="#FFFFFF" width="0" height="480.063"/>
			<rect x="377" y="294" clip-path="url(#SVGID_2_)" fill="#FFFFFF" width="7" height="481"/>
			<rect x="384" y="294.257" clip-path="url(#SVGID_2_)" fill="#FFFFFF" width="0" height="480.063"/>
			<rect x="384" y="294.257" clip-path="url(#SVGID_2_)" fill="#FFFFFF" width="0" height="480.063"/>
			<rect x="384" y="294" clip-path="url(#SVGID_2_)" fill="#FFFFFF" width="6" height="481"/>
			<rect x="390" y="294.257" clip-path="url(#SVGID_2_)" fill="#FFFFFF" width="0" height="480.063"/>
			<rect x="390" y="294.257" clip-path="url(#SVGID_2_)" fill="#FFFFFF" width="0" height="480.063"/>
			<rect x="390" y="294.257" clip-path="url(#SVGID_2_)" fill="#FFFFFF" width="0" height="480.063"/>
			<rect x="390" y="294" clip-path="url(#SVGID_2_)" fill="#FFFFFF" width="7" height="481"/>
			<rect x="397" y="294.257" clip-path="url(#SVGID_2_)" fill="#FFFFFF" width="0" height="480.063"/>
			<rect x="397" y="294.257" clip-path="url(#SVGID_2_)" fill="#FFFFFF" width="0" height="480.063"/>
			<rect x="397" y="294" clip-path="url(#SVGID_2_)" fill="#FFFFFF" width="7" height="481"/>
			<rect x="404" y="294.257" clip-path="url(#SVGID_2_)" fill="#FFFFFF" width="0" height="480.063"/>
			<rect x="404" y="294.257" clip-path="url(#SVGID_2_)" fill="#FFFFFF" width="0" height="480.063"/>
			<rect x="404" y="294" clip-path="url(#SVGID_2_)" fill="#FFFFFF" width="7" height="481"/>
			<rect x="411" y="294.257" clip-path="url(#SVGID_2_)" fill="#FFFFFF" width="0" height="480.063"/>
			<rect x="411" y="294.257" clip-path="url(#SVGID_2_)" fill="#FFFFFF" width="0" height="480.063"/>
			<rect x="411" y="294" clip-path="url(#SVGID_2_)" fill="#FFFFFF" width="6" height="481"/>
			<rect x="417" y="294.257" clip-path="url(#SVGID_2_)" fill="#FFFFFF" width="0" height="480.063"/>
			<rect x="417" y="294.257" clip-path="url(#SVGID_2_)" fill="#FFFFFF" width="0" height="480.063"/>
			<rect x="417" y="294" clip-path="url(#SVGID_2_)" fill="#FFFFFF" width="7" height="481"/>
			<rect x="424" y="294.257" clip-path="url(#SVGID_2_)" fill="#FFFFFF" width="0" height="480.063"/>
			<rect x="424" y="294.257" clip-path="url(#SVGID_2_)" fill="#FFFFFF" width="0" height="480.063"/>
			<rect x="424" y="294" clip-path="url(#SVGID_2_)" fill="#FFFFFF" width="7" height="481"/>
			<rect x="431" y="294.257" clip-path="url(#SVGID_2_)" fill="#FFFFFF" width="0" height="480.063"/>
			<rect x="431" y="294.257" clip-path="url(#SVGID_2_)" fill="#FFFFFF" width="0" height="480.063"/>
			<rect x="431" y="294.257" clip-path="url(#SVGID_2_)" fill="#FFFFFF" width="0" height="480.063"/>
			<rect x="431" y="294" clip-path="url(#SVGID_2_)" fill="#FFFFFF" width="7" height="481"/>
			<rect x="438" y="294.257" clip-path="url(#SVGID_2_)" fill="#FFFFFF" width="0" height="480.063"/>
			<rect x="438" y="294.257" clip-path="url(#SVGID_2_)" fill="#FFFFFF" width="0" height="480.063"/>
			<rect x="438" y="294" clip-path="url(#SVGID_2_)" fill="#FFFFFF" width="6" height="481"/>
			<rect x="444" y="294.257" clip-path="url(#SVGID_2_)" fill="#FFFFFF" width="0" height="480.063"/>
			<rect x="444" y="294.257" clip-path="url(#SVGID_2_)" fill="#FFFFFF" width="0" height="480.063"/>
			<rect x="444" y="294" clip-path="url(#SVGID_2_)" fill="#FFFFFF" width="7" height="481"/>
			<rect x="451" y="294.257" clip-path="url(#SVGID_2_)" fill="#FFFFFF" width="0" height="480.063"/>
			<rect x="451" y="294.257" clip-path="url(#SVGID_2_)" fill="#FFFFFF" width="0" height="480.063"/>
			<rect x="451" y="294" clip-path="url(#SVGID_2_)" fill="#FFFFFF" width="7" height="481"/>
			<rect x="458" y="294.257" clip-path="url(#SVGID_2_)" fill="#FFFFFF" width="0" height="480.063"/>
			<rect x="458" y="294.257" clip-path="url(#SVGID_2_)" fill="#FFFFFF" width="0" height="480.063"/>
			<rect x="458" y="294" clip-path="url(#SVGID_2_)" fill="#FFFFFF" width="7" height="481"/>
			<rect x="465" y="294.257" clip-path="url(#SVGID_2_)" fill="#FFFFFF" width="0" height="480.063"/>
			<rect x="465" y="294.257" clip-path="url(#SVGID_2_)" fill="#FFFFFF" width="0" height="480.063"/>
			<rect x="465" y="294" clip-path="url(#SVGID_2_)" fill="#FFFFFF" width="7" height="481"/>
			<rect x="472" y="294.257" clip-path="url(#SVGID_2_)" fill="#FFFFFF" width="0" height="480.063"/>
			<rect x="472" y="294.257" clip-path="url(#SVGID_2_)" fill="#FFFFFF" width="0" height="480.063"/>
			<rect x="472" y="294.257" clip-path="url(#SVGID_2_)" fill="#FFFFFF" width="0" height="480.063"/>
			<rect x="472" y="294" clip-path="url(#SVGID_2_)" fill="#FFFFFF" width="6" height="481"/>
			<rect x="478" y="294.257" clip-path="url(#SVGID_2_)" fill="#FFFFFF" width="0" height="480.063"/>
			<rect x="478" y="294.257" clip-path="url(#SVGID_2_)" fill="#FFFFFF" width="0" height="480.063"/>
			<rect x="478" y="294" clip-path="url(#SVGID_2_)" fill="#FFFFFF" width="7" height="481"/>
			<rect x="485" y="294.257" clip-path="url(#SVGID_2_)" fill="#FFFFFF" width="0" height="480.063"/>
			<rect x="485" y="294.257" clip-path="url(#SVGID_2_)" fill="#FFFFFF" width="0" height="480.063"/>
			<rect x="485" y="294" clip-path="url(#SVGID_2_)" fill="#FFFFFF" width="7" height="481"/>
			<rect x="492" y="294.257" clip-path="url(#SVGID_2_)" fill="#FFFFFF" width="0" height="480.063"/>
			<rect x="492" y="294.257" clip-path="url(#SVGID_2_)" fill="#FFFFFF" width="0" height="480.063"/>
			<rect x="492" y="294" clip-path="url(#SVGID_2_)" fill="#FFFFFF" width="7" height="481"/>
			<rect x="499" y="294.257" clip-path="url(#SVGID_2_)" fill="#FFFFFF" width="0" height="480.063"/>
			<rect x="499" y="294.257" clip-path="url(#SVGID_2_)" fill="#FFFFFF" width="0" height="480.063"/>
			<rect x="499" y="294" clip-path="url(#SVGID_2_)" fill="#FFFFFF" width="6" height="481"/>
			<rect x="505" y="294.257" clip-path="url(#SVGID_2_)" fill="#FFFFFF" width="0" height="480.063"/>
			<rect x="505" y="294.257" clip-path="url(#SVGID_2_)" fill="#FFFFFF" width="0" height="480.063"/>
			<rect x="505" y="294" clip-path="url(#SVGID_2_)" fill="#FFFFFF" width="7" height="481"/>
			<rect x="512" y="294.257" clip-path="url(#SVGID_2_)" fill="#FFFFFF" width="0" height="480.063"/>
			<rect x="512" y="294.257" clip-path="url(#SVGID_2_)" fill="#FFFFFF" width="0" height="480.063"/>
			<rect x="512" y="294.257" clip-path="url(#SVGID_2_)" fill="#FFFFFF" width="0" height="480.063"/>
			<rect x="512" y="294" clip-path="url(#SVGID_2_)" fill="#FFFFFF" width="7" height="481"/>
			<rect x="519" y="294.257" clip-path="url(#SVGID_2_)" fill="#FFFFFF" width="0" height="480.063"/>
			<rect x="519" y="294.257" clip-path="url(#SVGID_2_)" fill="#FFFFFF" width="0" height="480.063"/>
			<rect x="519" y="294" clip-path="url(#SVGID_2_)" fill="#FFFFFF" width="7" height="481"/>
			<rect x="526" y="294.257" clip-path="url(#SVGID_2_)" fill="#FFFFFF" width="0" height="480.063"/>
			<rect x="526" y="294.257" clip-path="url(#SVGID_2_)" fill="#FFFFFF" width="0" height="480.063"/>
			<rect x="526" y="294" clip-path="url(#SVGID_2_)" fill="#FFFFFF" width="6" height="481"/>
			<rect x="532" y="294.257" clip-path="url(#SVGID_2_)" fill="#FFFFFF" width="0" height="480.063"/>
			<rect x="532" y="294.257" clip-path="url(#SVGID_2_)" fill="#FFFFFF" width="0" height="480.063"/>
			<rect x="532" y="294" clip-path="url(#SVGID_2_)" fill="#FFFFFF" width="7" height="481"/>
			<rect x="539" y="294.257" clip-path="url(#SVGID_2_)" fill="#FFFFFF" width="0" height="480.063"/>
			<rect x="539" y="294.257" clip-path="url(#SVGID_2_)" fill="#FFFFFF" width="0" height="480.063"/>
			<rect x="539" y="294" clip-path="url(#SVGID_2_)" fill="#FFFFFF" width="7" height="481"/>
			<rect x="546" y="294.257" clip-path="url(#SVGID_2_)" fill="#FFFFFF" width="0" height="480.063"/>
			<rect x="546" y="294.257" clip-path="url(#SVGID_2_)" fill="#FFFFFF" width="0" height="480.063"/>
			<rect x="546" y="294" clip-path="url(#SVGID_2_)" fill="#FFFFFF" width="7" height="481"/>
			<rect x="553" y="294.257" clip-path="url(#SVGID_2_)" fill="#FFFFFF" width="0" height="480.063"/>
			<rect x="553" y="294.257" clip-path="url(#SVGID_2_)" fill="#FFFFFF" width="0" height="480.063"/>
			<rect x="553" y="294.257" clip-path="url(#SVGID_2_)" fill="#FFFFFF" width="0" height="480.063"/>
			<rect x="553" y="294" clip-path="url(#SVGID_2_)" fill="#FFFFFF" width="6" height="481"/>
			<rect x="559" y="294.257" clip-path="url(#SVGID_2_)" fill="#FFFFFF" width="0" height="480.063"/>
			<rect x="559" y="294.257" clip-path="url(#SVGID_2_)" fill="#FFFFFF" width="0" height="480.063"/>
			<rect x="559" y="294" clip-path="url(#SVGID_2_)" fill="#FFFFFF" width="7" height="481"/>
			<rect x="566" y="294.257" clip-path="url(#SVGID_2_)" fill="#FFFFFF" width="0" height="480.063"/>
			<rect x="566" y="294.257" clip-path="url(#SVGID_2_)" fill="#FFFFFF" width="0" height="480.063"/>
			<rect x="566" y="294" clip-path="url(#SVGID_2_)" fill="#FFFFFF" width="7" height="481"/>
			<rect x="573" y="294.257" clip-path="url(#SVGID_2_)" fill="#FFFFFF" width="0" height="480.063"/>
			<rect x="573" y="294.257" clip-path="url(#SVGID_2_)" fill="#FFFFFF" width="0" height="480.063"/>
			<rect x="573" y="294" clip-path="url(#SVGID_2_)" fill="#FFFFFF" width="7" height="481"/>
			<rect x="580" y="294.257" clip-path="url(#SVGID_2_)" fill="#FFFFFF" width="0" height="480.063"/>
			<rect x="580" y="294.257" clip-path="url(#SVGID_2_)" fill="#FFFFFF" width="0" height="480.063"/>
			<rect x="580" y="294" clip-path="url(#SVGID_2_)" fill="#FFFFFF" width="6" height="481"/>
			<rect x="586" y="294.257" clip-path="url(#SVGID_2_)" fill="#FFFFFF" width="0" height="480.063"/>
			<rect x="586" y="294.257" clip-path="url(#SVGID_2_)" fill="#FFFFFF" width="0" height="480.063"/>
			<rect x="586" y="294" clip-path="url(#SVGID_2_)" fill="#FFFFFF" width="7" height="481"/>
			<rect x="593" y="294.257" clip-path="url(#SVGID_2_)" fill="#FFFFFF" width="0" height="480.063"/>
			<rect x="593" y="294.257" clip-path="url(#SVGID_2_)" fill="#FFFFFF" width="0" height="480.063"/>
			<rect x="593" y="294.257" clip-path="url(#SVGID_2_)" fill="#FFFFFF" width="0" height="480.063"/>
			<rect x="593" y="294" clip-path="url(#SVGID_2_)" fill="#FFFFFF" width="7" height="481"/>
			<rect x="600" y="294.257" clip-path="url(#SVGID_2_)" fill="#FFFFFF" width="0" height="480.063"/>
			<rect x="600" y="294.257" clip-path="url(#SVGID_2_)" fill="#FFFFFF" width="0" height="480.063"/>
			<rect x="600" y="294" clip-path="url(#SVGID_2_)" fill="#FFFFFF" width="7" height="481"/>
			<rect x="607" y="294.257" clip-path="url(#SVGID_2_)" fill="#FFFFFF" width="0" height="480.063"/>
			<rect x="607" y="294.257" clip-path="url(#SVGID_2_)" fill="#FFFFFF" width="0" height="480.063"/>
			<rect x="607" y="294" clip-path="url(#SVGID_2_)" fill="#FFFFFF" width="7" height="481"/>
			<rect x="614" y="294.257" clip-path="url(#SVGID_2_)" fill="#FFFFFF" width="0" height="480.063"/>
			<rect x="614" y="294.257" clip-path="url(#SVGID_2_)" fill="#FFFFFF" width="0" height="480.063"/>
			<rect x="614" y="294" clip-path="url(#SVGID_2_)" fill="#FFFFFF" width="6" height="481"/>
			<rect x="620" y="294.257" clip-path="url(#SVGID_2_)" fill="#FFFFFF" width="0" height="480.063"/>
			<rect x="620" y="294.257" clip-path="url(#SVGID_2_)" fill="#FFFFFF" width="0" height="480.063"/>
			<rect x="620" y="294" clip-path="url(#SVGID_2_)" fill="#FFFFFF" width="7" height="481"/>
			<rect x="627" y="294.257" clip-path="url(#SVGID_2_)" fill="#FFFFFF" width="0" height="480.063"/>
			<rect x="627" y="294.257" clip-path="url(#SVGID_2_)" fill="#FFFFFF" width="0" height="480.063"/>
			<rect x="627" y="294" clip-path="url(#SVGID_2_)" fill="#FFFFFF" width="7" height="481"/>
			<rect x="634" y="294.257" clip-path="url(#SVGID_2_)" fill="#FFFFFF" width="0" height="480.063"/>
			<rect x="634" y="294.257" clip-path="url(#SVGID_2_)" fill="#FFFFFF" width="0" height="480.063"/>
			<rect x="634" y="294.257" clip-path="url(#SVGID_2_)" fill="#FFFFFF" width="0" height="480.063"/>
			<rect x="634" y="294" clip-path="url(#SVGID_2_)" fill="#FFFFFF" width="7" height="481"/>
			<rect x="641" y="294.257" clip-path="url(#SVGID_2_)" fill="#FFFFFF" width="0" height="480.063"/>
			<rect x="641" y="294.257" clip-path="url(#SVGID_2_)" fill="#FFFFFF" width="0" height="480.063"/>
			<rect x="641" y="294" clip-path="url(#SVGID_2_)" fill="#FFFFFF" width="6" height="481"/>
			<rect x="647" y="294.257" clip-path="url(#SVGID_2_)" fill="#FFFFFF" width="0" height="480.063"/>
			<rect x="647" y="294.257" clip-path="url(#SVGID_2_)" fill="#FFFFFF" width="0" height="480.063"/>
			<rect x="647" y="294" clip-path="url(#SVGID_2_)" fill="#FFFFFF" width="7" height="481"/>
			<rect x="654" y="294.257" clip-path="url(#SVGID_2_)" fill="#FFFFFF" width="0" height="480.063"/>
			<rect x="654" y="294.257" clip-path="url(#SVGID_2_)" fill="#FFFFFF" width="0" height="480.063"/>
			<rect x="654" y="294" clip-path="url(#SVGID_2_)" fill="#FFFFFF" width="7" height="481"/>
			<rect x="661" y="294.257" clip-path="url(#SVGID_2_)" fill="#FFFFFF" width="0" height="480.063"/>
			<rect x="661" y="294.257" clip-path="url(#SVGID_2_)" fill="#FFFFFF" width="0" height="480.063"/>
			<rect x="661" y="294" clip-path="url(#SVGID_2_)" fill="#FFFFFF" width="7" height="481"/>
			<rect x="668" y="294.257" clip-path="url(#SVGID_2_)" fill="#FFFFFF" width="0" height="480.063"/>
			<rect x="668" y="294.257" clip-path="url(#SVGID_2_)" fill="#FFFFFF" width="0" height="480.063"/>
			<rect x="668" y="294" clip-path="url(#SVGID_2_)" fill="#FFFFFF" width="6" height="481"/>
			<rect x="674" y="294.257" clip-path="url(#SVGID_2_)" fill="#FFFFFF" width="0" height="480.063"/>
			<rect x="674" y="294.257" clip-path="url(#SVGID_2_)" fill="#FFFFFF" width="0" height="480.063"/>
			<rect x="674" y="294.257" clip-path="url(#SVGID_2_)" fill="#FFFFFF" width="0" height="480.063"/>
			<rect x="674" y="294" clip-path="url(#SVGID_2_)" fill="#FFFFFF" width="7" height="481"/>
			<rect x="681" y="294.257" clip-path="url(#SVGID_2_)" fill="#FFFFFF" width="0" height="480.063"/>
			<rect x="681" y="294.257" clip-path="url(#SVGID_2_)" fill="#FFFFFF" width="0" height="480.063"/>
			<rect x="681" y="294" clip-path="url(#SVGID_2_)" fill="#FFFFFF" width="7" height="481"/>
			<rect x="688" y="294.257" clip-path="url(#SVGID_2_)" fill="#FFFFFF" width="0" height="480.063"/>
			<rect x="688" y="294.257" clip-path="url(#SVGID_2_)" fill="#FFFFFF" width="0" height="480.063"/>
			<rect x="688" y="294" clip-path="url(#SVGID_2_)" fill="#FFFFFF" width="7" height="481"/>
			<rect x="695" y="294.257" clip-path="url(#SVGID_2_)" fill="#FFFFFF" width="0" height="480.063"/>
			<rect x="695" y="294.257" clip-path="url(#SVGID_2_)" fill="#FFFFFF" width="0" height="480.063"/>
			<rect x="695" y="294" clip-path="url(#SVGID_2_)" fill="#FFFFFF" width="6" height="481"/>
			<rect x="701" y="294.257" clip-path="url(#SVGID_2_)" fill="#FFFFFF" width="0" height="480.063"/>
			<rect x="701" y="294.257" clip-path="url(#SVGID_2_)" fill="#FFFFFF" width="0" height="480.063"/>
			<rect x="701" y="294" clip-path="url(#SVGID_2_)" fill="#FFFFFF" width="7" height="481"/>
			<rect x="708" y="294.257" clip-path="url(#SVGID_2_)" fill="#FFFFFF" width="0" height="480.063"/>
			<rect x="708" y="294.257" clip-path="url(#SVGID_2_)" fill="#FFFFFF" width="0" height="480.063"/>
			<rect x="708" y="294" clip-path="url(#SVGID_2_)" fill="#FFFFFF" width="7" height="481"/>
			<rect x="715" y="294.257" clip-path="url(#SVGID_2_)" fill="#FFFFFF" width="0" height="480.063"/>
			<rect x="715" y="294.257" clip-path="url(#SVGID_2_)" fill="#FFFFFF" width="0" height="480.063"/>
			<rect x="715" y="294.257" clip-path="url(#SVGID_2_)" fill="#FFFFFF" width="0" height="480.063"/>
			<rect x="715" y="294" clip-path="url(#SVGID_2_)" fill="#FFFFFF" width="7" height="481"/>
			<rect x="722" y="294.257" clip-path="url(#SVGID_2_)" fill="#FFFFFF" width="0" height="480.063"/>
			<rect x="722" y="294.257" clip-path="url(#SVGID_2_)" fill="#FFFFFF" width="0" height="480.063"/>
			<rect x="722" y="294" clip-path="url(#SVGID_2_)" fill="#FFFFFF" width="6" height="481"/>
			<rect x="728" y="294.257" clip-path="url(#SVGID_2_)" fill="#FFFFFF" width="0" height="480.063"/>
			<rect x="728" y="294.257" clip-path="url(#SVGID_2_)" fill="#FFFFFF" width="0" height="480.063"/>
			<rect x="728" y="294" clip-path="url(#SVGID_2_)" fill="#FFFFFF" width="7" height="481"/>
			<rect x="735" y="294.257" clip-path="url(#SVGID_2_)" fill="#FFFFFF" width="0" height="480.063"/>
			<rect x="735" y="294.257" clip-path="url(#SVGID_2_)" fill="#FFFFFF" width="0" height="480.063"/>
			<rect x="735" y="294" clip-path="url(#SVGID_2_)" fill="#FFFFFF" width="7" height="481"/>
			<rect x="742" y="294.257" clip-path="url(#SVGID_2_)" fill="#FFFFFF" width="0" height="480.063"/>
			<rect x="742" y="294.257" clip-path="url(#SVGID_2_)" fill="#FFFFFF" width="0" height="480.063"/>
			<rect x="742" y="294" clip-path="url(#SVGID_2_)" fill="#FFFFFF" width="7" height="481"/>
			<rect x="749" y="294.257" clip-path="url(#SVGID_2_)" fill="#FFFFFF" width="0" height="480.063"/>
			<rect x="749" y="294.257" clip-path="url(#SVGID_2_)" fill="#FFFFFF" width="0" height="480.063"/>
			<rect x="749" y="294" clip-path="url(#SVGID_2_)" fill="#FFFFFF" width="7" height="481"/>
			<rect x="756" y="294.257" clip-path="url(#SVGID_2_)" fill="#FFFFFF" width="0" height="480.063"/>
			<rect x="756" y="294.257" clip-path="url(#SVGID_2_)" fill="#FFFFFF" width="0" height="480.063"/>
			<rect x="756" y="294.257" clip-path="url(#SVGID_2_)" fill="#FFFFFF" width="0" height="480.063"/>
			<rect x="756" y="294" clip-path="url(#SVGID_2_)" fill="#FFFFFF" width="6" height="481"/>
			<rect x="762" y="294.257" clip-path="url(#SVGID_2_)" fill="#FFFFFF" width="0" height="480.063"/>
			<rect x="762" y="294.257" clip-path="url(#SVGID_2_)" fill="#FFFFFF" width="0" height="480.063"/>
			<rect x="762" y="294" clip-path="url(#SVGID_2_)" fill="#FFFFFF" width="7" height="481"/>
			<rect x="769" y="294.257" clip-path="url(#SVGID_2_)" fill="#FFFFFF" width="0" height="480.063"/>
			<rect x="769" y="294.257" clip-path="url(#SVGID_2_)" fill="#FFFFFF" width="0" height="480.063"/>
			<path clip-path="url(#SVGID_2_)" fill="#FFFFFF" d="M769,771.47V293.757V771.47z"/>
		</g>
		<path fill="#FFFFFF" d="M771.471,814.302c-10.961,0-21.922-4.186-30.285-12.546L263.474,324.043
			c-16.729-16.725-16.729-43.85,0-60.576c16.725-16.719,43.844-16.719,60.569,0L801.756,741.18c16.725,16.725,16.725,43.85,0,60.576
			C793.396,810.115,782.432,814.302,771.471,814.302z"/>
	</g>
</g>
</svg>
