<?xml version="1.0" encoding="utf-8"?>
<!-- Generator: Adobe Illustrator 17.0.0, SVG Export Plug-In . SVG Version: 6.00 Build 0)  -->
<!DOCTYPE svg PUBLIC "-//W3C//DTD SVG 1.1//EN" "http://www.w3.org/Graphics/SVG/1.1/DTD/svg11.dtd">
<svg version="1.1" id="Layer_1" xmlns="http://www.w3.org/2000/svg" xmlns:xlink="http://www.w3.org/1999/xlink" x="0px" y="0px"
	 width="1200px" height="280px" viewBox="0 460 1200 280" enable-background="new 0 460 1200 280" xml:space="preserve">
<g>
	<g>
		<g>
			<path fill="#2196F3" d="M187.083,628.611c5.396,3.349,13.024,7.257,20.84,7.815l-10.234,17.677
				c-10.606-1.117-18.421-5.954-26.608-11.723c-11.909,7.629-26.049,11.723-40.936,11.723c-42.052,0-74.614-32.749-74.614-74.615
				c0-40.935,34.981-71.451,74.801-71.451c41.121,0,74.614,32.19,74.614,73.684C204.946,599.77,198.061,615.958,187.083,628.611z
				 M135.541,598.468c12.281,0.744,16.932,4.838,34.981,18.235c8.745-9.304,14.327-21.957,14.327-36.098
				c0-30.516-25.119-52.1-54.705-52.1c-30.888,0-54.705,22.142-54.705,53.402c0,29.958,25.864,51.914,54.891,51.914
				c8.001,0,15.63-1.674,22.701-4.838c-11.723-8.745-17.305-12.281-27.725-12.839L135.541,598.468z"/>
			<path fill="#2196F3" d="M285.882,653.917c-26.794,0-46.331-12.466-46.331-40.749v-58.613h19.165v58.613
				c0,16.374,10.978,21.398,27.352,21.398s27.353-5.024,27.353-21.398v-58.613h19.165v58.613c0,28.283-19.537,40.749-46.332,40.749
				H285.882z"/>
			<path fill="#2196F3" d="M373.703,650.94v-96.385h18.979v96.385H373.703z"/>
			<path fill="#2196F3" d="M489.065,650.94h-24.748l-41.866-96.385h21.584l32.562,76.848l33.307-76.848h21.77L489.065,650.94z"/>
			<path fill="#2196F3" d="M575.399,552.322h20.654l52.1,98.617h-21.026l-7.629-14.514h-11.537
				c-23.817,0-48.564,9.304-51.727,13.397l-0.558,1.117H535.58l46.145-86.523L575.399,552.322z M610.381,618.935l-18.793-35.726
				L568.7,627.308c6.141-3.163,19.166-8.373,39.075-8.373H610.381z"/>
			<path fill="#2196F3" d="M656.707,554.555h59.729c29.028,0,48.751,16.746,48.751,47.448c0,29.957-19.352,48.936-48.751,48.936
				h-39.261v-77.22h-11.909L656.707,554.555z M697.271,573.72v57.868h19.166c18.608,0,29.213-10.606,29.213-29.213
				c0-18.794-10.605-28.656-29.213-28.656h-19.166V573.72z"/>
			<path fill="#2196F3" d="M819.516,631.588h60.474v19.352h-79.453v-96.385h75.917v19.165h-56.938v23.446
				c8.373-4.838,18.979-5.583,30.144-5.583h14.142v19.166H849.66c-17.677,0-21.77,1.117-30.144,5.582V631.588z"/>
		</g>
		<g>
			
				<linearGradient id="SVGID_1_" gradientUnits="userSpaceOnUse" x1="-242.0513" y1="798.97" x2="837.3745" y2="798.97" gradientTransform="matrix(1 0 0 -1 302.34 1380.04)">
				<stop  offset="0" style="stop-color:#4DB6AC"/>
				<stop  offset="1" style="stop-color:#03A9F4"/>
			</linearGradient>
			<path fill="url(#SVGID_1_)" d="M187.083,628.611c5.396,3.349,13.024,7.257,20.84,7.815l-10.234,17.677
				c-10.606-1.117-18.421-5.954-26.608-11.723c-11.909,7.629-26.049,11.723-40.936,11.723c-42.052,0-74.614-32.749-74.614-74.615
				c0-40.935,34.981-71.451,74.801-71.451c41.121,0,74.614,32.19,74.614,73.684C204.946,599.77,198.061,615.958,187.083,628.611z
				 M135.541,598.468c12.281,0.744,16.932,4.838,34.981,18.235c8.745-9.304,14.327-21.957,14.327-36.098
				c0-30.516-25.119-52.1-54.705-52.1c-30.888,0-54.705,22.142-54.705,53.402c0,29.958,25.864,51.914,54.891,51.914
				c8.001,0,15.63-1.674,22.701-4.838c-11.723-8.745-17.305-12.281-27.725-12.839L135.541,598.468z"/>
			
				<linearGradient id="SVGID_2_" gradientUnits="userSpaceOnUse" x1="-242.0513" y1="775.8041" x2="837.3745" y2="775.8041" gradientTransform="matrix(1 0 0 -1 302.34 1380.04)">
				<stop  offset="0" style="stop-color:#4DB6AC"/>
				<stop  offset="1" style="stop-color:#03A9F4"/>
			</linearGradient>
			<path fill="url(#SVGID_2_)" d="M285.882,653.917c-26.794,0-46.331-12.466-46.331-40.749v-58.613h19.165v58.613
				c0,16.374,10.978,21.398,27.352,21.398s27.353-5.024,27.353-21.398v-58.613h19.165v58.613c0,28.283-19.537,40.749-46.332,40.749
				H285.882z"/>
			
				<linearGradient id="SVGID_3_" gradientUnits="userSpaceOnUse" x1="-242.0513" y1="777.2925" x2="837.3745" y2="777.2925" gradientTransform="matrix(1 0 0 -1 302.34 1380.04)">
				<stop  offset="0" style="stop-color:#4DB6AC"/>
				<stop  offset="1" style="stop-color:#03A9F4"/>
			</linearGradient>
			<path fill="url(#SVGID_3_)" d="M373.703,650.94v-96.385h18.979v96.385H373.703z"/>
			
				<linearGradient id="SVGID_4_" gradientUnits="userSpaceOnUse" x1="-242.0513" y1="777.2925" x2="837.3745" y2="777.2925" gradientTransform="matrix(1 0 0 -1 302.34 1380.04)">
				<stop  offset="0" style="stop-color:#4DB6AC"/>
				<stop  offset="1" style="stop-color:#03A9F4"/>
			</linearGradient>
			<path fill="url(#SVGID_4_)" d="M489.065,650.94h-24.748l-41.866-96.385h21.584l32.562,76.848l33.307-76.848h21.77L489.065,650.94
				z"/>
			
				<linearGradient id="SVGID_5_" gradientUnits="userSpaceOnUse" x1="-242.0513" y1="778.4095" x2="837.3745" y2="778.4095" gradientTransform="matrix(1 0 0 -1 302.34 1380.04)">
				<stop  offset="0" style="stop-color:#4DB6AC"/>
				<stop  offset="1" style="stop-color:#03A9F4"/>
			</linearGradient>
			<path fill="url(#SVGID_5_)" d="M575.399,552.322h20.654l52.1,98.617h-21.026l-7.629-14.514h-11.537
				c-23.817,0-48.564,9.304-51.727,13.397l-0.558,1.117H535.58l46.145-86.523L575.399,552.322z M610.381,618.935l-18.793-35.726
				L568.7,627.308c6.141-3.163,19.166-8.373,39.075-8.373H610.381z"/>
			
				<linearGradient id="SVGID_6_" gradientUnits="userSpaceOnUse" x1="-242.0513" y1="777.2931" x2="837.3745" y2="777.2931" gradientTransform="matrix(1 0 0 -1 302.34 1380.04)">
				<stop  offset="0" style="stop-color:#4DB6AC"/>
				<stop  offset="1" style="stop-color:#03A9F4"/>
			</linearGradient>
			<path fill="url(#SVGID_6_)" d="M656.707,554.555h59.729c29.028,0,48.751,16.746,48.751,47.448
				c0,29.957-19.352,48.936-48.751,48.936h-39.261v-77.22h-11.909L656.707,554.555z M697.271,573.72v57.868h19.166
				c18.608,0,29.213-10.606,29.213-29.213c0-18.794-10.605-28.656-29.213-28.656h-19.166V573.72z"/>
			
				<linearGradient id="SVGID_7_" gradientUnits="userSpaceOnUse" x1="-242.0513" y1="777.2925" x2="837.3745" y2="777.2925" gradientTransform="matrix(1 0 0 -1 302.34 1380.04)">
				<stop  offset="0" style="stop-color:#4DB6AC"/>
				<stop  offset="1" style="stop-color:#03A9F4"/>
			</linearGradient>
			<path fill="url(#SVGID_7_)" d="M819.516,631.588h60.474v19.352h-79.453v-96.385h75.917v19.165h-56.938v23.446
				c8.373-4.838,18.979-5.583,30.144-5.583h14.142v19.166H849.66c-17.677,0-21.77,1.117-30.144,5.582V631.588z"/>
		</g>
	</g>
	<g>
		<g>
			
				<linearGradient id="SVGID_8_" gradientUnits="userSpaceOnUse" x1="-242.0513" y1="846.5601" x2="837.3745" y2="846.5601" gradientTransform="matrix(1 0 0 -1 302.34 1380.04)">
				<stop  offset="0" style="stop-color:#4DB6AC"/>
				<stop  offset="1" style="stop-color:#03A9F4"/>
			</linearGradient>
			<path fill="url(#SVGID_8_)" d="M960.729,584.183c-27.958,0-50.703-22.746-50.703-50.703s22.746-50.703,50.703-50.703
				s50.703,22.745,50.703,50.703S988.686,584.183,960.729,584.183z M960.729,501.384c-17.699,0-32.096,14.398-32.096,32.096
				c0,17.699,14.397,32.097,32.096,32.097c17.699,0,32.096-14.398,32.096-32.097C992.824,515.782,978.427,501.384,960.729,501.384z"
				/>
		</g>
		<g>
			
				<linearGradient id="SVGID_9_" gradientUnits="userSpaceOnUse" x1="-242.0513" y1="846.5601" x2="837.3745" y2="846.5601" gradientTransform="matrix(1 0 0 -1 302.34 1380.04)">
				<stop  offset="0" style="stop-color:#4DB6AC"/>
				<stop  offset="1" style="stop-color:#03A9F4"/>
			</linearGradient>
			<path fill="url(#SVGID_9_)" d="M1093.766,584.183c-27.958,0-50.703-22.746-50.703-50.703s22.746-50.703,50.703-50.703
				s50.703,22.745,50.703,50.703S1121.724,584.183,1093.766,584.183z M1093.766,501.384c-17.699,0-32.096,14.398-32.096,32.096
				c0,17.699,14.397,32.097,32.096,32.097s32.096-14.398,32.096-32.097C1125.862,515.782,1111.465,501.384,1093.766,501.384z"/>
		</g>
		<g>
			
				<linearGradient id="SVGID_10_" gradientUnits="userSpaceOnUse" x1="-242.0513" y1="713.521" x2="837.3745" y2="713.521" gradientTransform="matrix(1 0 0 -1 302.34 1380.04)">
				<stop  offset="0" style="stop-color:#4DB6AC"/>
				<stop  offset="1" style="stop-color:#03A9F4"/>
			</linearGradient>
			<path fill="url(#SVGID_10_)" d="M960.729,717.223c-27.958,0-50.703-22.747-50.703-50.705s22.746-50.703,50.703-50.703
				s50.703,22.745,50.703,50.703S988.686,717.223,960.729,717.223z M960.729,634.422c-17.699,0-32.096,14.398-32.096,32.096
				c0,17.699,14.397,32.097,32.096,32.097c17.699,0,32.096-14.398,32.096-32.097C992.824,648.82,978.427,634.422,960.729,634.422z"
				/>
		</g>
		<g>
			
				<linearGradient id="SVGID_11_" gradientUnits="userSpaceOnUse" x1="-242.0513" y1="713.521" x2="837.3745" y2="713.521" gradientTransform="matrix(1 0 0 -1 302.34 1380.04)">
				<stop  offset="0" style="stop-color:#4DB6AC"/>
				<stop  offset="1" style="stop-color:#03A9F4"/>
			</linearGradient>
			<path fill="url(#SVGID_11_)" d="M1093.766,717.223c-27.958,0-50.703-22.747-50.703-50.705s22.746-50.703,50.703-50.703
				s50.703,22.745,50.703,50.703S1121.724,717.223,1093.766,717.223z M1093.766,634.422c-17.699,0-32.096,14.398-32.096,32.096
				c0,17.699,14.397,32.097,32.096,32.097s32.096-14.398,32.096-32.097C1125.862,648.82,1111.465,634.422,1093.766,634.422z"/>
		</g>
		<g>
			<g>
				<g>
					<line id="SVGID_12_" fill="none" x1="960.728" y1="533.48" x2="1064.493" y2="637.245"/>
				</g>
				<g>
					<defs>
						<line id="SVGID_13_" x1="960.728" y1="533.48" x2="1064.493" y2="637.245"/>
					</defs>
					<clipPath id="SVGID_14_">
						<use xlink:href="#SVGID_13_"  overflow="visible"/>
					</clipPath>
					
						<linearGradient id="SVGID_15_" gradientUnits="userSpaceOnUse" x1="-285.0852" y1="794.04" x2="845.7155" y2="794.04" gradientTransform="matrix(1 0 0 -1 302.34 1380.04)">
						<stop  offset="0" style="stop-color:#4DB6AC"/>
						<stop  offset="1" style="stop-color:#03A9F4"/>
					</linearGradient>
					<polygon clip-path="url(#SVGID_14_)" fill="url(#SVGID_15_)" points="964.465,534 964.218,638 961,638 961,534 					"/>
				</g>
				<g>
					<defs>
						<line id="SVGID_16_" x1="960.728" y1="533.48" x2="1064.493" y2="637.245"/>
					</defs>
					<clipPath id="SVGID_17_">
						<use xlink:href="#SVGID_16_"  overflow="visible"/>
					</clipPath>
					
						<linearGradient id="SVGID_18_" gradientUnits="userSpaceOnUse" x1="-242.0513" y1="794.04" x2="837.3745" y2="794.04" gradientTransform="matrix(1 0 0 -1 302.34 1380.04)">
						<stop  offset="0" style="stop-color:#4DB6AC"/>
						<stop  offset="1" style="stop-color:#03A9F4"/>
					</linearGradient>
					<polygon clip-path="url(#SVGID_17_)" fill="url(#SVGID_18_)" points="969.655,534 969.408,638 964.218,638 964.465,534 					
						"/>
				</g>
				<g>
					<defs>
						<line id="SVGID_19_" x1="960.728" y1="533.48" x2="1064.493" y2="637.245"/>
					</defs>
					<clipPath id="SVGID_20_">
						<use xlink:href="#SVGID_19_"  overflow="visible"/>
					</clipPath>
					
						<linearGradient id="SVGID_21_" gradientUnits="userSpaceOnUse" x1="-242.0513" y1="794.04" x2="837.3745" y2="794.04" gradientTransform="matrix(1 0 0 -1 302.34 1380.04)">
						<stop  offset="0" style="stop-color:#4DB6AC"/>
						<stop  offset="1" style="stop-color:#03A9F4"/>
					</linearGradient>
					<polygon clip-path="url(#SVGID_20_)" fill="url(#SVGID_21_)" points="974.845,534 974.597,638 969.408,638 969.655,534 					
						"/>
				</g>
				<g>
					<defs>
						<line id="SVGID_22_" x1="960.728" y1="533.48" x2="1064.493" y2="637.245"/>
					</defs>
					<clipPath id="SVGID_23_">
						<use xlink:href="#SVGID_22_"  overflow="visible"/>
					</clipPath>
					
						<linearGradient id="SVGID_24_" gradientUnits="userSpaceOnUse" x1="-242.0513" y1="794.04" x2="837.3745" y2="794.04" gradientTransform="matrix(1 0 0 -1 302.34 1380.04)">
						<stop  offset="0" style="stop-color:#4DB6AC"/>
						<stop  offset="1" style="stop-color:#03A9F4"/>
					</linearGradient>
					<polygon clip-path="url(#SVGID_23_)" fill="url(#SVGID_24_)" points="980.035,534 979.787,638 974.597,638 974.845,534 					
						"/>
				</g>
				<g>
					<defs>
						<line id="SVGID_25_" x1="960.728" y1="533.48" x2="1064.493" y2="637.245"/>
					</defs>
					<clipPath id="SVGID_26_">
						<use xlink:href="#SVGID_25_"  overflow="visible"/>
					</clipPath>
					
						<linearGradient id="SVGID_27_" gradientUnits="userSpaceOnUse" x1="-242.0513" y1="794.04" x2="837.3745" y2="794.04" gradientTransform="matrix(1 0 0 -1 302.34 1380.04)">
						<stop  offset="0" style="stop-color:#4DB6AC"/>
						<stop  offset="1" style="stop-color:#03A9F4"/>
					</linearGradient>
					<polygon clip-path="url(#SVGID_26_)" fill="url(#SVGID_27_)" points="985.225,534 984.977,638 979.787,638 980.035,534 					
						"/>
				</g>
				<g>
					<defs>
						<line id="SVGID_28_" x1="960.728" y1="533.48" x2="1064.493" y2="637.245"/>
					</defs>
					<clipPath id="SVGID_29_">
						<use xlink:href="#SVGID_28_"  overflow="visible"/>
					</clipPath>
					
						<linearGradient id="SVGID_30_" gradientUnits="userSpaceOnUse" x1="-242.0513" y1="794.04" x2="837.3745" y2="794.04" gradientTransform="matrix(1 0 0 -1 302.34 1380.04)">
						<stop  offset="0" style="stop-color:#4DB6AC"/>
						<stop  offset="1" style="stop-color:#03A9F4"/>
					</linearGradient>
					<polygon clip-path="url(#SVGID_29_)" fill="url(#SVGID_30_)" points="990.415,534 990.167,638 984.977,638 985.225,534 					
						"/>
				</g>
				<g>
					<defs>
						<line id="SVGID_31_" x1="960.728" y1="533.48" x2="1064.493" y2="637.245"/>
					</defs>
					<clipPath id="SVGID_32_">
						<use xlink:href="#SVGID_31_"  overflow="visible"/>
					</clipPath>
					
						<linearGradient id="SVGID_33_" gradientUnits="userSpaceOnUse" x1="-242.0513" y1="794.04" x2="837.3745" y2="794.04" gradientTransform="matrix(1 0 0 -1 302.34 1380.04)">
						<stop  offset="0" style="stop-color:#4DB6AC"/>
						<stop  offset="1" style="stop-color:#03A9F4"/>
					</linearGradient>
					<polygon clip-path="url(#SVGID_32_)" fill="url(#SVGID_33_)" points="995.605,534 995.357,638 990.167,638 990.415,534 					
						"/>
				</g>
				<g>
					<defs>
						<line id="SVGID_34_" x1="960.728" y1="533.48" x2="1064.493" y2="637.245"/>
					</defs>
					<clipPath id="SVGID_35_">
						<use xlink:href="#SVGID_34_"  overflow="visible"/>
					</clipPath>
					
						<linearGradient id="SVGID_36_" gradientUnits="userSpaceOnUse" x1="-242.0513" y1="794.04" x2="837.3745" y2="794.04" gradientTransform="matrix(1 0 0 -1 302.34 1380.04)">
						<stop  offset="0" style="stop-color:#4DB6AC"/>
						<stop  offset="1" style="stop-color:#03A9F4"/>
					</linearGradient>
					<polygon clip-path="url(#SVGID_35_)" fill="url(#SVGID_36_)" points="1000.795,534 1000.547,638 995.357,638 995.605,534 					
						"/>
				</g>
				<g>
					<defs>
						<line id="SVGID_37_" x1="960.728" y1="533.48" x2="1064.493" y2="637.245"/>
					</defs>
					<clipPath id="SVGID_38_">
						<use xlink:href="#SVGID_37_"  overflow="visible"/>
					</clipPath>
					
						<linearGradient id="SVGID_39_" gradientUnits="userSpaceOnUse" x1="-242.0513" y1="794.04" x2="837.3745" y2="794.04" gradientTransform="matrix(1 0 0 -1 302.34 1380.04)">
						<stop  offset="0" style="stop-color:#4DB6AC"/>
						<stop  offset="1" style="stop-color:#03A9F4"/>
					</linearGradient>
					<polygon clip-path="url(#SVGID_38_)" fill="url(#SVGID_39_)" points="1005.984,534 1005.737,638 1000.547,638 1000.795,534 
											"/>
				</g>
				<g>
					<defs>
						<line id="SVGID_40_" x1="960.728" y1="533.48" x2="1064.493" y2="637.245"/>
					</defs>
					<clipPath id="SVGID_41_">
						<use xlink:href="#SVGID_40_"  overflow="visible"/>
					</clipPath>
					
						<linearGradient id="SVGID_42_" gradientUnits="userSpaceOnUse" x1="-242.0513" y1="794.04" x2="837.3745" y2="794.04" gradientTransform="matrix(1 0 0 -1 302.34 1380.04)">
						<stop  offset="0" style="stop-color:#4DB6AC"/>
						<stop  offset="1" style="stop-color:#03A9F4"/>
					</linearGradient>
					<polygon clip-path="url(#SVGID_41_)" fill="url(#SVGID_42_)" points="1011.174,534 1010.927,638 1005.737,638 1005.984,534 
											"/>
				</g>
				<g>
					<defs>
						<line id="SVGID_43_" x1="960.728" y1="533.48" x2="1064.493" y2="637.245"/>
					</defs>
					<clipPath id="SVGID_44_">
						<use xlink:href="#SVGID_43_"  overflow="visible"/>
					</clipPath>
					
						<linearGradient id="SVGID_45_" gradientUnits="userSpaceOnUse" x1="-242.0513" y1="794.04" x2="837.3745" y2="794.04" gradientTransform="matrix(1 0 0 -1 302.34 1380.04)">
						<stop  offset="0" style="stop-color:#4DB6AC"/>
						<stop  offset="1" style="stop-color:#03A9F4"/>
					</linearGradient>
					<polygon clip-path="url(#SVGID_44_)" fill="url(#SVGID_45_)" points="1016.364,534 1016.117,638 1010.927,638 1011.174,534 
											"/>
				</g>
				<g>
					<defs>
						<line id="SVGID_46_" x1="960.728" y1="533.48" x2="1064.493" y2="637.245"/>
					</defs>
					<clipPath id="SVGID_47_">
						<use xlink:href="#SVGID_46_"  overflow="visible"/>
					</clipPath>
					
						<linearGradient id="SVGID_48_" gradientUnits="userSpaceOnUse" x1="-242.0513" y1="794.04" x2="837.3745" y2="794.04" gradientTransform="matrix(1 0 0 -1 302.34 1380.04)">
						<stop  offset="0" style="stop-color:#4DB6AC"/>
						<stop  offset="1" style="stop-color:#03A9F4"/>
					</linearGradient>
					<polygon clip-path="url(#SVGID_47_)" fill="url(#SVGID_48_)" points="1021.554,534 1021.307,638 1016.117,638 1016.364,534 
											"/>
				</g>
				<g>
					<defs>
						<line id="SVGID_49_" x1="960.728" y1="533.48" x2="1064.493" y2="637.245"/>
					</defs>
					<clipPath id="SVGID_50_">
						<use xlink:href="#SVGID_49_"  overflow="visible"/>
					</clipPath>
					
						<linearGradient id="SVGID_51_" gradientUnits="userSpaceOnUse" x1="-242.0513" y1="794.04" x2="837.3745" y2="794.04" gradientTransform="matrix(1 0 0 -1 302.34 1380.04)">
						<stop  offset="0" style="stop-color:#4DB6AC"/>
						<stop  offset="1" style="stop-color:#03A9F4"/>
					</linearGradient>
					<polygon clip-path="url(#SVGID_50_)" fill="url(#SVGID_51_)" points="1026.744,534 1026.496,638 1021.307,638 1021.554,534 
											"/>
				</g>
				<g>
					<defs>
						<line id="SVGID_52_" x1="960.728" y1="533.48" x2="1064.493" y2="637.245"/>
					</defs>
					<clipPath id="SVGID_53_">
						<use xlink:href="#SVGID_52_"  overflow="visible"/>
					</clipPath>
					
						<linearGradient id="SVGID_54_" gradientUnits="userSpaceOnUse" x1="-242.0513" y1="794.04" x2="837.3745" y2="794.04" gradientTransform="matrix(1 0 0 -1 302.34 1380.04)">
						<stop  offset="0" style="stop-color:#4DB6AC"/>
						<stop  offset="1" style="stop-color:#03A9F4"/>
					</linearGradient>
					<polygon clip-path="url(#SVGID_53_)" fill="url(#SVGID_54_)" points="1031.934,534 1031.686,638 1026.496,638 1026.744,534 
											"/>
				</g>
				<g>
					<defs>
						<line id="SVGID_55_" x1="960.728" y1="533.48" x2="1064.493" y2="637.245"/>
					</defs>
					<clipPath id="SVGID_56_">
						<use xlink:href="#SVGID_55_"  overflow="visible"/>
					</clipPath>
					
						<linearGradient id="SVGID_57_" gradientUnits="userSpaceOnUse" x1="-242.0513" y1="794.04" x2="837.3745" y2="794.04" gradientTransform="matrix(1 0 0 -1 302.34 1380.04)">
						<stop  offset="0" style="stop-color:#4DB6AC"/>
						<stop  offset="1" style="stop-color:#03A9F4"/>
					</linearGradient>
					<polygon clip-path="url(#SVGID_56_)" fill="url(#SVGID_57_)" points="1037.124,534 1036.876,638 1031.686,638 1031.934,534 
											"/>
				</g>
				<g>
					<defs>
						<line id="SVGID_58_" x1="960.728" y1="533.48" x2="1064.493" y2="637.245"/>
					</defs>
					<clipPath id="SVGID_59_">
						<use xlink:href="#SVGID_58_"  overflow="visible"/>
					</clipPath>
					
						<linearGradient id="SVGID_60_" gradientUnits="userSpaceOnUse" x1="-242.0513" y1="794.04" x2="837.3745" y2="794.04" gradientTransform="matrix(1 0 0 -1 302.34 1380.04)">
						<stop  offset="0" style="stop-color:#4DB6AC"/>
						<stop  offset="1" style="stop-color:#03A9F4"/>
					</linearGradient>
					<polygon clip-path="url(#SVGID_59_)" fill="url(#SVGID_60_)" points="1042.314,534 1042.066,638 1036.876,638 1037.124,534 
											"/>
				</g>
				<g>
					<defs>
						<line id="SVGID_61_" x1="960.728" y1="533.48" x2="1064.493" y2="637.245"/>
					</defs>
					<clipPath id="SVGID_62_">
						<use xlink:href="#SVGID_61_"  overflow="visible"/>
					</clipPath>
					
						<linearGradient id="SVGID_63_" gradientUnits="userSpaceOnUse" x1="-242.0513" y1="794.04" x2="837.3745" y2="794.04" gradientTransform="matrix(1 0 0 -1 302.34 1380.04)">
						<stop  offset="0" style="stop-color:#4DB6AC"/>
						<stop  offset="1" style="stop-color:#03A9F4"/>
					</linearGradient>
					<polygon clip-path="url(#SVGID_62_)" fill="url(#SVGID_63_)" points="1047.504,534 1047.256,638 1042.066,638 1042.314,534 
											"/>
				</g>
				<g>
					<defs>
						<line id="SVGID_64_" x1="960.728" y1="533.48" x2="1064.493" y2="637.245"/>
					</defs>
					<clipPath id="SVGID_65_">
						<use xlink:href="#SVGID_64_"  overflow="visible"/>
					</clipPath>
					
						<linearGradient id="SVGID_66_" gradientUnits="userSpaceOnUse" x1="-242.0513" y1="794.04" x2="837.3745" y2="794.04" gradientTransform="matrix(1 0 0 -1 302.34 1380.04)">
						<stop  offset="0" style="stop-color:#4DB6AC"/>
						<stop  offset="1" style="stop-color:#03A9F4"/>
					</linearGradient>
					<polygon clip-path="url(#SVGID_65_)" fill="url(#SVGID_66_)" points="1052.694,534 1052.446,638 1047.256,638 1047.504,534 
											"/>
				</g>
				<g>
					<defs>
						<line id="SVGID_67_" x1="960.728" y1="533.48" x2="1064.493" y2="637.245"/>
					</defs>
					<clipPath id="SVGID_68_">
						<use xlink:href="#SVGID_67_"  overflow="visible"/>
					</clipPath>
					
						<linearGradient id="SVGID_69_" gradientUnits="userSpaceOnUse" x1="-242.0513" y1="794.04" x2="837.3745" y2="794.04" gradientTransform="matrix(1 0 0 -1 302.34 1380.04)">
						<stop  offset="0" style="stop-color:#4DB6AC"/>
						<stop  offset="1" style="stop-color:#03A9F4"/>
					</linearGradient>
					<polygon clip-path="url(#SVGID_68_)" fill="url(#SVGID_69_)" points="1057.883,534 1057.636,638 1052.446,638 1052.694,534 
											"/>
				</g>
				<g>
					<defs>
						<line id="SVGID_70_" x1="960.728" y1="533.48" x2="1064.493" y2="637.245"/>
					</defs>
					<clipPath id="SVGID_71_">
						<use xlink:href="#SVGID_70_"  overflow="visible"/>
					</clipPath>
					
						<linearGradient id="SVGID_72_" gradientUnits="userSpaceOnUse" x1="-242.0513" y1="794.04" x2="837.3745" y2="794.04" gradientTransform="matrix(1 0 0 -1 302.34 1380.04)">
						<stop  offset="0" style="stop-color:#4DB6AC"/>
						<stop  offset="1" style="stop-color:#03A9F4"/>
					</linearGradient>
					<polygon clip-path="url(#SVGID_71_)" fill="url(#SVGID_72_)" points="1063.073,534 1062.826,638 1057.636,638 1057.883,534 
											"/>
				</g>
				<g>
					<defs>
						<line id="SVGID_73_" x1="960.728" y1="533.48" x2="1064.493" y2="637.245"/>
					</defs>
					<clipPath id="SVGID_74_">
						<use xlink:href="#SVGID_73_"  overflow="visible"/>
					</clipPath>
					
						<linearGradient id="SVGID_75_" gradientUnits="userSpaceOnUse" x1="-273.5983" y1="794.04" x2="839.7941" y2="794.04" gradientTransform="matrix(1 0 0 -1 302.34 1380.04)">
						<stop  offset="0" style="stop-color:#4DB6AC"/>
						<stop  offset="1" style="stop-color:#03A9F4"/>
					</linearGradient>
					<polygon clip-path="url(#SVGID_74_)" fill="url(#SVGID_75_)" points="1062.826,638 1063.073,534 1064,534 1064,638 					"/>
				</g>
			</g>
			
				<linearGradient id="SVGID_76_" gradientUnits="userSpaceOnUse" x1="-242.0513" y1="794.6771" x2="837.3745" y2="794.6771" gradientTransform="matrix(1 0 0 -1 302.34 1380.04)">
				<stop  offset="0" style="stop-color:#4DB6AC"/>
				<stop  offset="1" style="stop-color:#03A9F4"/>
			</linearGradient>
			<path fill="url(#SVGID_76_)" d="M1064.493,646.549c-2.381,0-4.762-0.908-6.579-2.725L954.15,540.058
				c-3.633-3.633-3.633-9.523,0-13.156c3.634-3.633,9.523-3.634,13.158,0l103.765,103.766c3.633,3.633,3.633,9.523,0,13.156
				C1069.255,645.64,1066.874,646.549,1064.493,646.549z"/>
		</g>
	</g>
</g>
</svg>
